<?xml version="1.0" encoding="UTF-8"?>
<svg id="_レイヤー_2" data-name="レイヤー 2" xmlns="http://www.w3.org/2000/svg" viewBox="0 0 643.19 588.23">
  <g id="_レイヤー_1-2" data-name="レイヤー 1">
    <g>
      <path d="M588.24,218.18l-276.82-.03c-2.42,3.6-4.36,8.37-4.63,12.22l-1.57,22.33c-5.92,8.59-13.98,14.99-25.14,18.8l-.23-64.08,51.98-.12.05-129.96,78.52-.13,11.97-45.04-117.17-.09,4.99-11.01,306.71.1-7.11,10.95-156-.02-22.04,45.1h129.38s0,129.95,0,129.95l65.39.32-20.42,32.07-17.27,25.21c-1.63.61-7.16-2.39-7.8-4.6l7.21-41.98ZM532.68,163.08l-.05-32.36-152.62-.05,1.09-10.3,151.62-.07-.4-32.28-172.95.03-.07,119.34,173.32-.06.06-33.98-153-.06,2.1-10.18,150.91-.02Z"/>
      <path d="M166.72,501.47l147.92-72.87,29.72-30.96c18.94-19.73,34.34-40.83,47.8-64.69l32.59,2.13c-16.97,27.74-38.27,46.95-61.64,69.7l169.35-81.35-103.92-1.36c-22.34-.29-42.57-12.03-42.54-33.26l.05-38.44,22.8-.47,1.46,38.83c.4,10.58,13.63,19.04,24.67,19.08l130.78.42,71.72-34.04,3.34-1.58c.91-.43,3.01,2.57,2.17,3.11l-3.79,2.4-439.92,216.26L.68,588.23l-.68-3.54,166.72-83.23Z"/>
      <path d="M228.61,118.37c-41.25,72.69-85.01,142.6-141.58,205.14,52.65-84.76,100.46-166.93,136.64-257.87L248.02.06l36.33-.06c-16.77,41.14-33.61,79.36-55.74,118.37Z"/>
      <polygon points="226.41 412.68 197.72 427.23 197.61 198.78 226.35 198.62 226.41 412.68"/>
      <path d="M438.36,447.57l-28.24-27.97c-.93-.92-3.28-3.15-2.79-4.15l1.9-3.88c12.62,11.84,26.31,19.76,42.24,25.33,25.77-23.81,49.03-46.69,71.03-73.43l40.86.32c-28.09,30.62-56.53,57.03-89.97,80.74-40.36,28.61-81.95,55.84-128.46,74.67,31.38-26.3,64.44-43.37,93.43-71.63Z"/>
      <path d="M308.56,334.2l-13.09-13.96c20.96-18.8,35.49-37.84,46.31-64.09l15.73,7.07c-10.31,28.55-26.42,50.85-48.94,70.99Z"/>
      <path d="M468.65,281.39c-11.7-15.27-21.18-27.31-37.37-39.02l7.2-10.35,46.29,32.48-16.12,16.88Z"/>
      <path d="M508.77,288.57c-1.67,2.74-6.84,3.56-9.43,1.85l22.21-40.9,8.87,3.43-21.65,35.62Z"/>
    </g>
  </g>
</svg>